<?xml version="1.0" encoding="iso-8859-1"?>
<!-- Generator: Adobe Illustrator 16.0.0, SVG Export Plug-In . SVG Version: 6.00 Build 0)  -->
<!DOCTYPE svg PUBLIC "-//W3C//DTD SVG 1.1//EN" "http://www.w3.org/Graphics/SVG/1.1/DTD/svg11.dtd">
<svg version="1.1" xmlns="http://www.w3.org/2000/svg" xmlns:xlink="http://www.w3.org/1999/xlink" x="0px" y="0px" width="512px"
	 height="512px" viewBox="0 0 512 512" style="enable-background:new 0 0 512 512;" xml:space="preserve">
<g id="_x37_6_x2C__Brain_x2C__Gear_x2C__Mind_x2C__Setting">
	<g>
		<path style="fill:#FEE682;" d="M446,228.5c13.811,0,25,11.19,25,25c0,13.81-11.189,25-25,25s-25-11.19-25-25
			C421,239.69,432.189,228.5,446,228.5z"/>
		<path style="fill:#FEE682;" d="M66,358.5c13.81,0,25,11.19,25,25s-11.19,25-25,25s-25-11.19-25-25S52.19,358.5,66,358.5z"/>
		<path style="fill:#E40C57;" d="M344.99,106.12c25.54,0,46.359,20.86,46.359,46.37c0,25.54-20.819,46.36-46.359,46.36
			c-25.51,0-46.37-20.82-46.37-46.36C298.62,126.98,319.48,106.12,344.99,106.12z M369.9,152.49c0-13.69-11.19-24.88-24.91-24.88
			c-13.69,0-24.881,11.19-24.881,24.88c0,13.72,11.19,24.91,24.881,24.91C358.71,177.4,369.9,166.21,369.9,152.49z"/>
		<path style="fill:#FA686C;" d="M434.01,136.57v31.86l-20.26,1.59c-1.689,6.67-4.3,12.95-7.72,18.7l13.159,15.46l-22.51,22.51
			l-15.459-13.16c-0.07,0.04-0.15,0.09-0.221,0.12v0.01c-5.689,3.36-11.891,5.92-18.48,7.59l-1.59,20.26H329.07l-1.62-20.26
			c-6.63-1.69-12.91-4.3-18.67-7.72l-15.45,13.16l-22.51-22.51l13.16-15.46c-3.42-5.75-6.07-12.03-7.76-18.7L256,168.43v-31.86
			l20.221-1.62c1.689-6.63,4.34-12.91,7.76-18.67l-13.16-15.45l22.51-22.51l15.45,13.16c5.76-3.42,12.04-6.07,18.67-7.76l0.43-5.33
			l1.19-14.89h31.859l1.59,20.22c6.67,1.69,12.951,4.34,18.701,7.76l15.459-13.16l22.51,22.51l-13.159,15.45
			c3.42,5.76,6.03,12.04,7.72,18.67L434.01,136.57z M391.35,152.49c0-25.51-20.819-46.37-46.359-46.37
			c-25.51,0-46.37,20.86-46.37,46.37c0,25.54,20.86,46.36,46.37,46.36C370.53,198.85,391.35,178.03,391.35,152.49z"/>
		<circle cx="448.5" cy="336" r="7.5"/>
		<circle cx="443.5" cy="71" r="7.5"/>
		<circle cx="411" cy="456" r="7.5"/>
		<polygon style="fill:#00467D;" points="381,383.5 381,453.5 201,453.5 		"/>
		<polygon style="fill:#3B6BAB;" points="381,353.5 381,383.5 201,453.5 201,423.5 		"/>
		<path style="fill:#FDD1A3;" d="M381,213.66V353.5l-180,70v-60h-60c0-11.898,0-87.982,0-100H91l20-80c0-72.26,57.74-130,130-130h10
			c28.859,0,55.4,9.22,76.88,24.89l-0.43,5.33c-6.63,1.69-12.91,4.34-18.67,7.76l-15.45-13.16l-22.51,22.51l13.16,15.45
			c-3.42,5.76-6.07,12.04-7.76,18.67L256,136.57v31.86l20.221,1.59c1.689,6.67,4.34,12.95,7.76,18.7l-13.16,15.46l22.51,22.51
			l15.45-13.16c5.76,3.42,12.04,6.03,18.67,7.72l1.62,20.26h31.859l1.59-20.26C369.109,219.58,375.311,217.02,381,213.66z"/>
		<circle cx="148.5" cy="436" r="7.5"/>
		<circle cx="108.5" cy="56" r="7.5"/>
		<circle cx="98.5" cy="311" r="7.5"/>
		<circle cx="53.5" cy="176" r="7.5"/>
		
			<line style="fill:none;stroke:#000000;stroke-width:10;stroke-linecap:round;stroke-linejoin:round;stroke-miterlimit:10;" x1="201" y1="453.5" x2="381" y2="383.5"/>
		
			<line style="fill:none;stroke:#000000;stroke-width:10;stroke-linecap:round;stroke-linejoin:round;stroke-miterlimit:10;" x1="201" y1="423.5" x2="381" y2="353.5"/>
		<path style="fill:none;stroke:#000000;stroke-width:10;stroke-linecap:round;stroke-linejoin:round;stroke-miterlimit:10;" d="
			M91,383.5c0,13.81-11.19,25-25,25s-25-11.19-25-25s11.19-25,25-25S91,369.69,91,383.5z"/>
		<path style="fill:none;stroke:#000000;stroke-width:10;stroke-linecap:round;stroke-linejoin:round;stroke-miterlimit:10;" d="
			M327.88,78.39C306.4,62.72,279.859,53.5,251,53.5h-10c-72.26,0-130,57.74-130,130l-20,80h50v30v70h60v60v30h180v-70v-30V213.66"/>
		<path style="fill:none;stroke:#000000;stroke-width:10;stroke-linecap:round;stroke-linejoin:round;stroke-miterlimit:10;" d="
			M327.88,78.39l1.19-14.89h31.859l1.59,20.22c6.67,1.69,12.951,4.34,18.701,7.76l15.459-13.16l22.51,22.51l-13.159,15.45
			c3.42,5.76,6.03,12.04,7.72,18.67l20.26,1.62v31.86l-20.26,1.59c-1.689,6.67-4.3,12.95-7.72,18.7l13.159,15.46l-22.51,22.51
			l-15.459-13.16c-0.07,0.04-0.15,0.09-0.221,0.12v0.01c-5.689,3.36-11.891,5.92-18.48,7.59l-1.59,20.26H329.07l-1.62-20.26
			c-6.63-1.69-12.91-4.3-18.67-7.72l-15.45,13.16l-22.51-22.51l13.16-15.46c-3.42-5.75-6.07-12.03-7.76-18.7L256,168.43v-31.86
			l20.221-1.62c1.689-6.63,4.34-12.91,7.76-18.67l-13.16-15.45l22.51-22.51l15.45,13.16c5.76-3.42,12.04-6.07,18.67-7.76
			L327.88,78.39z"/>
		<path style="fill:none;stroke:#000000;stroke-width:10;stroke-linecap:round;stroke-linejoin:round;stroke-miterlimit:10;" d="
			M344.99,198.85c25.54,0,46.359-20.82,46.359-46.36c0-25.51-20.819-46.37-46.359-46.37c-25.51,0-46.37,20.86-46.37,46.37
			C298.62,178.03,319.48,198.85,344.99,198.85z"/>
		<path style="fill:none;stroke:#000000;stroke-width:10;stroke-linecap:round;stroke-linejoin:round;stroke-miterlimit:10;" d="
			M344.99,177.4c13.72,0,24.91-11.19,24.91-24.91c0-13.69-11.19-24.88-24.91-24.88c-13.69,0-24.881,11.19-24.881,24.88
			C320.109,166.21,331.3,177.4,344.99,177.4z"/>
		<path style="fill:none;stroke:#000000;stroke-width:10;stroke-linecap:round;stroke-linejoin:round;stroke-miterlimit:10;" d="
			M471,253.5c0,13.81-11.189,25-25,25s-25-11.19-25-25c0-13.81,11.189-25,25-25S471,239.69,471,253.5z"/>
	</g>
</g>
<g id="Layer_1">
</g>
</svg>
